#!OML:ASF F:\VICON\USERDATA\INSTALL\rory3\rory3.ASF
:FULLY-SPECIFIED
:DEGREES
84
root 4.757396956482209 17.58317040538777 37.85679707979392 -1.3953390868530402 -5.895931347201312 -6.7964114647346285
lfemur -28.459933023397234 -2.6165314588401305 -10.891204641489473
ltibia 16.251099877802375
lfoot -4.312134807489594 -1.923508100985123
ltoes -3.9657209638535798
rfemur 11.47679159198799 7.201395000107873 33.871359303288074
rtibia 29.263244126356117
rfoot -12.723791316321744 -3.360890210735114
rtoes -7.653007153061008
lowerback 1.0 2.2795395734652653 6.6169112072858445
upperback 0.43345597787121165 4.14444900223755 1.90561583191289
thorax -4.554500458895591 2.047199140845704 -2.054484192928464
lowerneck -17.24698991528043 -2.929013688090782 -1.3085883535717913
upperneck 14.682982294241619 -3.4091909071132176 1.3119288690790674
head 8.90738494841889 -1.539274008437361 0.1604847998592344
lclavicle -2.1486914653114444e-16 -3.8816447914577365e-15
lhumerus -36.35695401541117 10.087215521403078 79.12613399053433
lradius 25.207255880934035
lwrist 0.7930407873180547
lhand -26.80609612176292 22.234367809883555
lfingers nan
lthumb -0.06079020003504826 53.138146599689925
rclavicle -1.4015359915346423e-15 -5.421837759129313e-15
rhumerus -23.530233960007628 -11.191543199584427 -81.60364138646696
rradius 30.426602534002075
rwrist 0.885738919225644
rhand -18.262963713945588 1.0
rfingers nan
rthumb 8.10244291667292 -4.855322713774167
85
root 4.8004134297958885 17.600193012081373 38.67098352962853 -1.9915573463541065 -5.5347237802807445 -6.189437199092177
lfemur -27.94816181984926 -1.8642200999484815 -14.200869576210732
ltibia 20.77432627985037
lfoot -4.072154582273539 -3.198070259069644
ltoes -0.3743159174813684
rfemur 10.889656189658183 6.20425926940649 31.34726094808646
rtibia 33.07373355202886
rfoot -8.9336056207674 -1.9439980254199423
rtoes -10.52259781771194
lowerback 1.0 2.321994525880296 5.084709646623173
upperback 0.6195982712177055 4.025433667884814 1.3733895613844156
thorax -4.21419604041561 1.9824616128802721 -1.4369016253589237
lowerneck -17.43679919110946 -2.9683542624429258 -1.3024791622619467
upperneck 15.120467969601528 -3.484649989935717 1.3439419551369922
head 9.002327837172725 -1.5941239010409023 0.09015301806102886
lclavicle -8.981824136932948e-16 -5.08073175048994e-15
lhumerus -36.799166864999556 10.482216560799426 78.71100388905023
lradius 24.288099681102178
lwrist 0.5968417356175317
lhand -26.656502921397934 23.971838569479008
lfingers nan
lthumb -0.03675247409545529 53.92422430692585
rclavicle 6.422587702092898e-16 -3.199333416856462e-15
rhumerus -23.946604969651098 -11.696386078485219 -81.59440113346955
rradius 30.063309490110687
rwrist 1.4820590132446787
rhand -18.440362583452046 1.0
rfingers nan
rthumb 8.097988060054359 -5.516986748900078
86
root 4.81911537152802 17.621209097694415 37.780075750342235 -2.7207362797877988 -5.452369371969654 -5.805431705829923
lfemur -26.09341155747172 -1.8473333425695675 -17.344341066746775
ltibia 24.300700384670062
lfoot -1.42992156561365 -4.699896478547682
ltoes 1.3389293600602272
rfemur 6.18465294928636 4.137612800379632 28.149748169987785
rtibia 40.84436221424536
rfoot -0.5458148293902632 -0.43778604182152225
rtoes -9.39095831041804
lowerback 1.0 2.091999767151976 3.5200422787191927
upperback 0.6022876398630893 3.465310977652725 0.8073428704157246
thorax -4.587560907998572 1.795310884280274 -0.7850988365351561
lowerneck -17.503572849550356 -3.073857734940341 -1.5589407815794398
upperneck 14.80354614109114 -3.549863347785126 1.641214991924999
head 9.291117266498542 -1.5849971154727707 0.5486172706572413
lclavicle -1.5880068292279349e-15 -4.144968562477445e-15
lhumerus -36.81923221044593 10.484237592722724 78.50403860133906
lradius 23.266534628848866
lwrist -0.12891373207003465
lhand -27.2964298129466 22.656642922650498
lfingers nan
lthumb -0.3412960604995721 53.085837627617195
rclavicle 7.750370893314018e-16 -3.4417405442367152e-15
rhumerus -23.947385668590314 -13.301119772265242 -81.35093516350446
rradius 29.695214520428227
rwrist 2.3831483824209743
rhand -18.264533883773897 1.0
rfingers nan
rthumb 8.120269246302888 -5.714506107300507
87
root 4.885322836747643 17.682592570513112 40.308068677248386 -3.1837808887270325 -5.041796369098085 -4.533670387828806
lfemur -23.78524689385359 -0.5224445138768152 -17.784420812252062
ltibia 28.40220760368316
lfoot -2.873802520728788 -4.611164141056825
ltoes -0.7889637307131765
rfemur 0.35716669950106983 4.102595338784458 27.817114369377048
rtibia 50.07619680754017
rfoot 9.989093612819971 0.3606055698997048
rtoes -2.9243248700482853
lowerback 1.0 2.029662210563993 4.07721133013644
upperback 0.5564862324385911 3.4925501717483414 1.0173571618447967
thorax -4.996059664237211 1.7052944492710032 -1.0101590506992435
lowerneck -16.829615199586517 -3.1274521843652696 -1.6093797016874383
upperneck 14.743112458590746 -3.8203551705901235 1.6846308132137409
head 9.20362204440235 -1.7409009215838782 0.4589842230519499
lclavicle -1.098795680467146e-15 -4.722590787964565e-15
lhumerus -36.837623072629874 9.850581559775677 78.85358457267975
lradius 22.581061827984247
lwrist 0.07879170179243555
lhand -27.486141731030177 22.409607028299202
lfingers nan
lthumb -0.8120409187968469 52.57309417492895
rclavicle -4.2340710435042623e-16 -6.103657398682897e-15
rhumerus -24.576853128739437 -15.04572844138373 -80.93022035799368
rradius 29.591152175199873
rwrist 3.1117847018260365
rhand -18.079429455818804 1.0
rfingers nan
rthumb 8.307878433596164 -6.3385937134736885
